<svg width="136" height="165" viewBox="0 0 136 165" fill="none" xmlns="http://www.w3.org/2000/svg">
<path d="M113.981 145.073L113.989 145.064L113.998 145.055C115.729 143.122 116.746 141.191 116.746 139.287C116.746 136.933 115.606 134.765 113.556 132.794C112.33 131.438 110.911 130.636 109.306 130.636C108.234 130.636 107.106 131.031 105.95 131.697C104.791 132.364 103.538 133.342 102.195 134.603C97.3021 138.847 92.086 141.942 86.5463 143.904C80.9966 145.715 74.3241 146.633 66.5086 146.633C53.8007 146.633 44.0319 143.358 37.0668 136.933C30.338 130.577 26.8189 121.893 26.593 110.764L65.7451 116.309L65.8925 116.33L66.0396 116.307L102.528 110.611C108.391 110.595 113.088 108.739 116.483 104.954C120.027 101.16 121.732 95.8632 121.732 89.2091C121.732 80.2139 119.325 72.2105 114.497 65.2338C109.814 58.1109 103.222 52.6639 94.762 48.886C86.3016 44.9535 76.6689 43 65.8853 43C48.3576 43 34.4324 48.3285 24.2353 59.0742C14.0407 69.6624 9 84.2332 9 102.656C9 121.836 13.9632 136.798 24.0253 147.394C34.0942 157.998 48.3052 163.239 66.5086 163.239C76.8505 163.239 85.9108 161.758 93.6683 158.767C101.428 155.776 108.201 151.208 113.981 145.073ZM85.8615 63.239L85.869 63.2421C91.8237 65.6585 96.3725 69.0337 99.569 73.344C102.766 77.6545 104.358 82.469 104.358 87.818C104.358 90.8055 103.751 92.6214 102.807 93.5764C101.814 94.4238 100.23 94.9325 97.8792 94.9325H27.0062C27.2066 84.1951 30.6551 75.7664 37.2775 69.5353L37.2788 69.5341C44.2526 62.949 53.7486 59.606 65.8853 59.606C73.3947 59.606 80.0475 60.8248 85.8615 63.239Z" fill="#060826" stroke="#060826" stroke-width="2"/>
<path d="M8.56194 94.2337L8.56668 94.2427L8.57161 94.2516C13.7928 103.715 21.4589 111.292 31.5374 116.981C41.6469 122.688 53.7558 125.518 67.8235 125.518C81.889 125.518 93.9199 122.689 103.872 116.979C113.951 111.289 121.539 103.711 126.6 94.2428C131.804 84.646 134.407 74.3129 134.407 63.2591C134.407 52.2078 131.805 41.9542 126.6 32.5158C121.54 22.8898 113.953 15.2302 103.872 9.53896C93.9201 3.82948 81.8891 1 67.8235 1C53.7558 1 41.6469 3.8303 31.5374 9.53728C21.4546 15.2292 13.7882 22.8887 8.56815 32.5131L8.56814 32.5131L8.56525 32.5185C3.52026 41.9576 1 52.21 1 63.2591C1 74.3083 3.5202 84.6381 8.56194 94.2337ZM101.737 96.3985L101.73 96.4048C93.3054 104.362 82.0393 108.384 67.8235 108.384C53.4468 108.384 42.0184 104.361 33.4329 96.4016C25.0283 88.462 20.7772 77.4587 20.7772 63.2591C20.7772 49.0595 25.0283 38.0562 33.433 30.1166C42.0185 22.1572 53.4468 18.1346 67.8235 18.1346C82.0393 18.1346 93.3054 22.1566 101.73 30.1135L101.737 30.1197C110.301 38.0609 114.63 49.0633 114.63 63.2591C114.63 77.455 110.301 88.4573 101.737 96.3985Z" fill="#060826" stroke="#060826" stroke-width="2"/>
</svg>
