<svg width="285" height="290" viewBox="0 0 285 290" fill="none" xmlns="http://www.w3.org/2000/svg">
<path d="M125.745 241.309L125.892 241.33L126.04 241.307L162.528 235.611C168.391 235.595 173.088 233.739 176.483 229.954C180.027 226.16 181.732 220.863 181.732 214.209C181.732 205.214 179.325 197.21 174.497 190.234C169.814 183.111 163.222 177.664 154.762 173.886C146.302 169.953 136.669 168 125.885 168C108.358 168 94.4323 173.329 84.2352 184.074C74.0407 194.662 69 209.233 69 227.656C69 246.836 73.9632 261.798 84.0253 272.394C94.0942 282.998 108.305 288.239 126.509 288.239C136.851 288.239 145.911 286.758 153.668 283.767C161.428 280.776 168.201 276.208 173.981 270.073L173.989 270.064L173.998 270.055C175.729 268.122 176.746 266.191 176.746 264.287C176.746 261.933 175.606 259.765 173.556 257.795C172.33 256.438 170.911 255.636 169.306 255.636C168.234 255.636 167.106 256.031 165.95 256.697C164.791 257.365 163.538 258.342 162.195 259.603C157.302 263.847 152.086 266.942 146.546 268.904C140.996 270.715 134.324 271.633 126.509 271.633C113.801 271.633 104.032 268.358 97.0668 261.933C90.338 255.577 86.8189 246.893 86.593 235.764L125.745 241.309ZM145.862 188.239L145.869 188.242C151.824 190.659 156.372 194.034 159.569 198.344C162.766 202.654 164.358 207.469 164.358 212.818C164.358 215.806 163.751 217.621 162.807 218.576C161.814 219.424 160.23 219.932 157.879 219.932H87.0062C87.2066 209.195 90.6551 200.766 97.2775 194.535L97.2788 194.534C104.253 187.949 113.749 184.606 125.885 184.606C133.395 184.606 140.047 185.825 145.862 188.239Z" fill="white" stroke="white" stroke-width="2"/>
<path d="M68.5619 219.234L68.5667 219.243L68.5716 219.252C73.7928 228.715 81.4589 236.292 91.5374 241.981C101.647 247.688 113.756 250.518 127.824 250.518C141.889 250.518 153.92 247.689 163.873 241.979C173.951 236.289 181.539 228.71 186.6 219.242C191.805 209.645 194.407 199.313 194.407 188.259C194.407 177.208 191.805 166.954 186.6 157.516C181.54 147.89 173.953 140.23 163.872 134.539C153.92 128.829 141.889 126 127.824 126C113.756 126 101.647 128.83 91.5374 134.537C81.4546 140.229 73.7882 147.889 68.5682 157.513L68.5681 157.513L68.5653 157.519C63.5203 166.958 61 177.21 61 188.259C61 199.308 63.5202 209.638 68.5619 219.234ZM161.737 221.399L161.73 221.405C153.305 229.362 142.039 233.384 127.824 233.384C113.447 233.384 102.018 229.361 93.4329 221.402C85.0283 213.462 80.7772 202.459 80.7772 188.259C80.7772 174.06 85.0283 163.056 93.4329 155.117C102.018 147.157 113.447 143.135 127.824 143.135C142.039 143.135 153.305 147.157 161.73 155.113L161.737 155.12C170.301 163.061 174.63 174.063 174.63 188.259C174.63 202.455 170.301 213.457 161.737 221.399Z" fill="white" stroke="white" stroke-width="2"/>
<path d="M200.821 170.796L200.853 170.834L200.888 170.869C202.725 172.706 205.25 173.565 208.322 173.565C211.394 173.565 213.919 172.706 215.755 170.869C217.744 168.88 218.691 166.201 218.691 162.955V17.8944H272.704C275.868 17.8944 278.449 17.2308 280.295 15.7534C282.158 14.263 283.073 12.201 283.073 9.68742C283.073 6.91287 282.218 4.66919 280.365 3.14878C278.55 1.65945 275.938 1 272.704 1H144.42C141.186 1 138.574 1.65945 136.759 3.14878C134.906 4.66919 134.051 6.91287 134.051 9.68742C134.051 12.3353 134.948 14.489 136.829 15.9936L136.871 16.0274L136.916 16.0564C138.889 17.3115 141.417 17.8944 144.42 17.8944H198.433V162.955C198.433 166.151 199.191 168.803 200.821 170.796Z" fill="white" stroke="white" stroke-width="2"/>
<path d="M3.66238 170.835L3.67838 170.853L3.69521 170.869C5.52128 172.696 7.95807 173.565 10.8886 173.565C13.9606 173.565 16.4855 172.706 18.3222 170.869L18.339 170.853L18.355 170.835C20.1665 168.842 21.0174 166.176 21.0174 162.955V95.2491H88.7237C91.7333 95.2491 94.2201 94.5833 96.0569 93.1225C98.0942 91.6321 99.0928 89.4779 99.0928 86.8019C99.0928 84.0273 98.2378 81.7836 96.3848 80.2632C94.5697 78.7739 91.9581 78.1144 88.7237 78.1144H21.0174V30.8278C21.0174 26.857 22.0802 23.7499 24.1219 21.4095C26.3147 19.0772 29.1598 17.8944 32.7497 17.8944H106.981C110.146 17.8944 112.726 17.2308 114.573 15.7534C116.436 14.2631 117.35 12.201 117.35 9.68742C117.35 6.91287 116.495 4.66919 114.642 3.14878C112.827 1.65945 110.216 1 106.981 1H32.5095C22.7207 1 14.9214 3.61414 9.24229 8.95922L9.23686 8.96433L9.23151 8.96952C3.71105 14.3227 1 21.6518 1 30.8278V162.955C1 166.176 1.85093 168.842 3.66238 170.835Z" fill="white" stroke="white" stroke-width="2"/>
</svg>
